<!DOCTYPE svg PUBLIC "-//W3C//DTD SVG 1.1//EN" "http://www.w3.org/Graphics/SVG/1.1/DTD/svg11.dtd">
<!-- Uploaded to: SVG Repo, www.svgrepo.com, Transformed by: SVG Repo Mixer Tools -->
<svg fill="rgb(0, 180, 120)" height="800px" width="800px" version="1.1" id="Capa_1" xmlns="http://www.w3.org/2000/svg" xmlns:xlink="http://www.w3.org/1999/xlink" viewBox="0 0 392.62 392.62" xml:space="preserve" stroke="rgb(0, 180, 120)">
<g id="SVGRepo_bgCarrier" stroke-width="0"/>
<g id="SVGRepo_tracerCarrier" stroke-linecap="round" stroke-linejoin="round"/>
<g id="SVGRepo_iconCarrier"> <g> <path d="M232.756,196.855c-7.949-2.321-16.282,2.233-18.609,10.184c-5.613,19.181-21.23,33.669-40.757,37.813 c-29.202,6.202-58.008-12.521-64.205-41.727s12.521-58.009,41.727-64.206c8.104-1.719,13.279-9.683,11.56-17.786 c-1.72-8.104-9.683-13.284-17.787-11.56c-45.387,9.631-74.477,54.392-64.846,99.778c8.387,39.525,43.41,66.688,82.293,66.688 c5.767,0,11.624-0.599,17.486-1.843c30.34-6.437,54.604-28.942,63.322-58.732C245.267,207.514,240.708,199.182,232.756,196.855z"/> <path d="M198.131,125.633c-28.867,11.763-48.867,38.338-52.194,69.355c-0.883,8.236,5.078,15.63,13.314,16.514 c8.238,0.884,15.631-5.077,16.515-13.314c2.148-20.025,15.056-37.182,33.685-44.771c27.866-11.354,59.771,2.079,71.124,29.943 c5.5,13.498,5.414,28.33-0.242,41.764c-5.655,13.434-16.204,23.86-29.701,29.359c-7.672,3.126-11.357,11.88-8.231,19.552 c2.371,5.818,7.978,9.345,13.896,9.344c1.885,0,3.802-0.357,5.654-1.112c20.919-8.523,37.267-24.684,46.032-45.502 c8.765-20.819,8.897-43.806,0.374-64.725C290.763,128.856,241.317,108.043,198.131,125.633z"/> <path d="M310.724,0.929H81.896C36.738,0.929,0,37.667,0,82.825v226.97c0,45.157,36.738,81.896,81.896,81.896h228.828 c45.158,0,81.896-36.738,81.896-81.896V82.825C392.62,37.667,355.881,0.929,310.724,0.929z M362.62,309.795 c0,28.615-23.28,51.896-51.896,51.896H81.896C53.28,361.691,30,338.41,30,309.795V82.825c0-28.616,23.28-51.896,51.896-51.896 h228.828c28.616,0,51.896,23.28,51.896,51.896V309.795z"/> </g> </g>
</svg>