<!DOCTYPE svg PUBLIC "-//W3C//DTD SVG 1.1//EN" "http://www.w3.org/Graphics/SVG/1.1/DTD/svg11.dtd">

<!-- Uploaded to: SVG Repo, www.svgrepo.com, Transformed by: SVG Repo Mixer Tools -->
<svg height="30px" width="30px" version="1.1" id="Capa_1" xmlns="http://www.w3.org/2000/svg" xmlns:xlink="http://www.w3.org/1999/xlink" viewBox="0 0 26 26" xml:space="preserve" fill="#000000">

<g id="SVGRepo_bgCarrier" stroke-width="0"/>

<g id="SVGRepo_tracerCarrier" stroke-linecap="round" stroke-linejoin="round"/>

<g id="SVGRepo_iconCarrier"> <g> <path style="fill:#ffffff;" d="M20.266,4.207c-0.244-0.24-0.494-0.484-0.74-0.732c-0.248-0.246-0.492-0.496-0.732-0.74 C17.082,0.988,16.063,0,15,0H7C4.795,0,3,1.795,3,4v18c0,2.205,1.795,4,4,4h12c2.205,0,4-1.795,4-4V8 C23,6.938,22.012,5.918,20.266,4.207z M21,22c0,1.104-0.896,2-2,2H7c-1.104,0-2-0.896-2-2V4c0-1.104,0.896-2,2-2l7.289-0.004 C15.01,2.18,15,3.066,15,3.953V7c0,0.551,0.449,1,1,1h3c0.998,0,2,0.005,2,1V22z"/> <path style="fill:#ffffff;" d="M17.734,14.672c0.074,0.094,0.11,0.205,0.11,0.318s-0.036,0.225-0.11,0.317 c-0.072,0.091-1.883,2.223-3.916,3.589c-0.157,0.105-0.36,0.115-0.526,0.026s-0.271-0.263-0.271-0.452v-1.784 c-1.117-0.188-4.248-0.243-4.43-0.373c-0.27-0.19-0.453-0.808-0.453-1.322c0-0.513,0.183-1.058,0.453-1.248 c0.183-0.129,3.313-0.259,4.43-0.446v-1.79c0-0.188,0.104-0.362,0.271-0.451s0.37-0.079,0.526,0.026 C15.852,12.45,17.662,14.582,17.734,14.672z"/> </g> </g>

</svg>